<svg xmlns="http://www.w3.org/2000/svg" width="406" height="148" viewBox="0 0 406 148" fill="none"><path d="M0 100.2C0 73.5996 20.1 53.0996 47.2 53.0996C64.5 53.0996 79.8 62.1996 87.5 75.8996L64.2 89.4996C61.2 83.2996 54.8 79.4996 46.9 79.4996C35.3 79.4996 26.8 87.8996 26.8 100.2C26.8 112.5 35.4 120.9 46.9 120.9C54.7 120.9 61.3 117.2 64.2 110.9L87.5 124.3C79.8 138.2 64.7 147.3 47.2 147.3C20.1 147.3 0 126.8 0 100.2Z" fill="#00B6A9"></path><path d="M86.2002 31.7998C86.2002 23.0998 93.5002 15.7998 102.2 15.7998C110.9 15.7998 118.2 23.0998 118.2 31.7998C118.2 40.4998 110.9 47.7998 102.2 47.7998C93.5002 47.7998 86.2002 40.4998 86.2002 31.7998Z" fill="#00B6A9"></path><path d="M115.6 55.5996H88.9004V144.7H115.6V55.5996Z" fill="#00B6A9"></path><path d="M214.5 55.6V144.7H187.8V136.3C181.9 143.1 173.2 147.2 161.2 147.2C137.9 147.2 118.6 126.7 118.6 100.1C118.6 73.5 137.8 53 161.2 53C173.1 53 181.9 57.1 187.8 63.9V55.5H214.5V55.6ZM187.8 100.2C187.8 86.8 178.9 78.5 166.6 78.5C154.3 78.5 145.4 86.9 145.4 100.2C145.4 113.6 154.3 121.9 166.6 121.9C178.9 121.9 187.8 113.6 187.8 100.2Z" fill="#00B6A9"></path><path d="M353.6 89.9996V144.7H326.9V92.3996C326.9 83.4996 322.6 77.7996 314.1 77.7996C305.2 77.7996 300.2 83.9996 300.2 94.5996V144.9H273.5V92.3996C273.5 83.4996 269.2 77.7996 260.7 77.7996C251.8 77.7996 246.8 83.9996 246.8 94.5996V144.9H220.1V55.5996H246.8V63.7996C250.9 57.6996 258.7 53.0996 270.7 53.0996C281.2 53.0996 289.1 57.3996 294 64.8996C299 57.7996 307.2 53.0996 319.8 53.0996C340.2 53.0996 353.6 67.7996 353.6 89.9996Z" fill="#00B6A9"></path><path d="M390.7 44.2L390.4 44C390.5 44.1 390.6 44.2 390.7 44.2Z" fill="#00B6A9"></path><path d="M381.5 0H357V73.6H381.5V0Z" fill="#00B6A9"></path><path d="M357 24.5L381.5 49V24.5H357Z" fill="white"></path><path d="M406 24.5H381.5V49H406V24.5Z" fill="#00B6A9"></path><path d="M357 24.5H332.5V49H357V24.5Z" fill="#00B6A9"></path><path d="M381.5 0H357V24.5H381.5V0Z" fill="#00B6A9"></path><path d="M381.5 49H357V73.5H381.5V49Z" fill="#00B6A9"></path></svg>